# xmcd CD database file
#
# Track frame offsets:
#	150
#	12788
#	31986
#	50592
#	63399
#	71964
#	95591
#	112636
#	124542
#	136577
#	147000
#	166795
#
# Disc length: 2341 seconds
#
# Revision: 0
# Processed by: cddbd v1.5.2PL0 Copyright (c) Steve Scherf et al.
# Submitted via: CDex 1.51
#
DISCID=9609230c
DTITLE=19th Street Red - Wine, Women and the Blues
DYEAR=1900
DGENRE=Blues
TTITLE0=I'm The Man Down Here
TTITLE1=Wang Dang Doodle
TTITLE2=Waiting Blues
TTITLE3=Whiskey Stole My Baby
TTITLE4=Time's Up
TTITLE5=It's Ranin'
TTITLE6=Roll and Tumble
TTITLE7=Maudie
TTITLE8=Tell Me Something
TTITLE9=I'm Glad She's Mine
TTITLE10=Red's Blues #3
TTITLE11=Why'd You Have to do That
EXTD=
EXTT0=
EXTT1=
EXTT2=
EXTT3=
EXTT4=
EXTT5=
EXTT6=
EXTT7=
EXTT8=
EXTT9=
EXTT10=
EXTT11=
PLAYORDER=
